<svg width="24" height="24" viewBox="0 0 24 24" fill="none" xmlns="http://www.w3.org/2000/svg">
<path d="M11.9995 1.26367C9.87599 1.26367 7.80014 1.89338 6.03447 3.07316C4.26881 4.25293 2.89264 5.9298 2.07999 7.8917C1.26735 9.8536 1.05472 12.0124 1.46901 14.0952C1.88329 16.1779 2.90587 18.091 4.40745 19.5926C5.90902 21.0942 7.82214 22.1168 9.90489 22.531C11.9876 22.9453 14.1464 22.7327 16.1083 21.9201C18.0703 21.1074 19.7471 19.7312 20.9269 17.9656C22.1067 16.1999 22.7364 14.1241 22.7364 12.0005C22.7364 9.15292 21.6052 6.42197 19.5916 4.40842C17.5781 2.39487 14.8471 1.26367 11.9995 1.26367ZM11.9995 21.3952C10.1414 21.3952 8.32506 20.8443 6.7801 19.8119C5.23515 18.7796 4.031 17.3124 3.31994 15.5957C2.60887 13.8791 2.42282 11.9901 2.78532 10.1677C3.14782 8.34529 4.04258 6.67131 5.35646 5.35743C6.67034 4.04355 8.34432 3.14879 10.1667 2.78629C11.9891 2.4238 13.8781 2.60984 15.5947 3.32091C17.3114 4.03197 18.7787 5.23612 19.811 6.78108C20.8433 8.32603 21.3943 10.1424 21.3943 12.0005C21.3943 14.4921 20.4045 16.8817 18.6426 18.6436C16.8808 20.4054 14.4912 21.3952 11.9995 21.3952Z" fill="#262626" stroke="#262626" stroke-width="0.631579"/>
<path d="M12.0444 5.05348C11.2432 5.04017 10.449 5.20447 9.71813 5.53473C8.98726 5.86499 8.33768 6.35309 7.81556 6.96434C7.74302 7.03195 7.68471 7.1135 7.64407 7.20418C7.60343 7.29486 7.5813 7.39281 7.57898 7.49225C7.57893 7.58398 7.59723 7.67479 7.63279 7.75927C7.66835 7.84375 7.72044 7.92018 7.78597 7.984C7.8515 8.04782 7.92912 8.09773 8.01422 8.13076C8.09932 8.1638 8.19015 8.17928 8.28132 8.17629C8.47663 8.17142 8.66338 8.0947 8.80623 7.96067C9.20136 7.49498 9.69212 7.12092 10.2447 6.86421C10.7974 6.6075 11.3987 6.47425 12.0074 6.47362C13.7522 6.47362 14.839 7.60377 14.839 9.00904V9.04621C14.839 10.6894 13.5378 11.6039 11.4825 11.7601C11.3993 11.7633 11.3177 11.7842 11.243 11.8213C11.1684 11.8585 11.1024 11.9111 11.0493 11.9756C10.9963 12.0402 10.9574 12.1153 10.9352 12.196C10.9131 12.2768 10.9081 12.3613 10.9206 12.4441C10.9206 12.4441 10.9206 14.1691 10.9206 14.4888C10.939 14.6729 11.025 14.8434 11.1617 14.9671C11.2984 15.0909 11.476 15.1589 11.66 15.158H11.7413C11.9243 15.1395 12.0938 15.0531 12.2169 14.9156C12.3399 14.7781 12.4076 14.5994 12.4067 14.4145V12.8828C14.6246 12.5705 16.4211 11.3958 16.4211 8.95699V8.91981C16.3989 6.68924 14.6689 5.05348 12.0444 5.05348Z" fill="#262626" stroke="#262626" stroke-width="0.631579"/>
<path d="M12.0008 18.8844C12.6635 18.8844 13.2008 18.3471 13.2008 17.6844C13.2008 17.0216 12.6635 16.4844 12.0008 16.4844C11.338 16.4844 10.8008 17.0216 10.8008 17.6844C10.8008 18.3471 11.338 18.8844 12.0008 18.8844Z" fill="#262626" stroke="#262626" stroke-width="0.631579"/>
</svg>
