<svg width="20" height="20" viewBox="0 0 20 20" fill="none" xmlns="http://www.w3.org/2000/svg">
<g clip-path="url(#clip0_4678_3836)">
<path fill-rule="evenodd" clip-rule="evenodd" d="M11.8182 2.66593C11.3099 2.23553 10.6654 1.99934 9.99934 1.99934C9.33328 1.99934 8.68879 2.23553 8.18046 2.66593L2.79482 7.11964C2.30485 7.52561 1.99987 8.16657 1.99987 8.86552V15.8101C1.99987 17.077 2.95181 17.9989 3.99974 17.9989H5.9996V14.7471C5.9996 12.4923 7.73349 10.5574 9.99934 10.5574C12.2652 10.5574 13.9991 12.4923 13.9991 14.7471V17.9989H15.9989C17.0469 17.9989 17.9988 17.077 17.9988 15.8091V8.86552C17.9988 8.16657 17.6948 7.52561 17.2039 7.11964L11.8182 2.66593ZM13.0921 1.12503L18.4778 5.57774C19.4477 6.38068 19.9987 7.5966 19.9987 8.86552V15.8101C19.9987 18.0649 18.2648 19.9988 15.9989 19.9988H13.9991C13.4687 19.9988 12.96 19.7881 12.585 19.413C12.2099 19.038 11.9992 18.5293 11.9992 17.9989V14.7471C11.9992 13.4792 11.0473 12.5573 9.99934 12.5573C8.95141 12.5573 7.99947 13.4792 7.99947 14.7471V17.9989C7.99947 18.5293 7.78877 19.038 7.41372 19.413C7.03868 19.7881 6.53 19.9988 5.9996 19.9988H3.99974C1.73389 19.9988 0 18.0649 0 15.8091V8.86552C0 7.5966 0.549964 6.38068 1.5209 5.57774L6.90654 1.12503C7.77328 0.398304 8.86825 0 9.99934 0C11.1304 0 12.2254 0.398304 13.0921 1.12503Z" fill="#171717"/>
</g>
<defs>
<clipPath id="clip0_4678_3836">
<rect width="20" height="20" fill="white"/>
</clipPath>
</defs>
</svg>
